<svg width="525" height="513" viewBox="0 0 525 513" fill="none" xmlns="http://www.w3.org/2000/svg">
<g clip-path="url(#clip0_41_19)">
<ellipse cx="262.5" cy="254.236" rx="193.091" ry="162.589" fill="#EC1919"/>
<path d="M514.191 20.8105C513.752 20.3138 513.311 19.8201 512.873 19.3234C514.009 19.0344 514.447 19.5311 514.191 20.8105Z" fill="#FEFEFE"/>
<path d="M155.055 302.471C158.112 298.31 161.628 298.537 165.741 300.749C180 308.42 194.407 315.776 208.635 323.51C218.23 328.728 224.979 328.325 231.93 321.438C236.431 316.979 236.375 311.746 231.664 307.215C223.869 299.716 213.704 296.794 204.723 291.579C196.098 286.57 187.215 282.056 178.393 277.438C176.198 276.289 174.759 276.137 177.473 273.158C181.537 268.698 184.918 263.426 188.025 258.122C190.178 254.444 192.096 254.578 195.329 256.307C211.029 264.71 226.847 272.868 242.605 281.149C250.658 285.379 258.992 283.79 264.255 276.934C269.103 270.617 267.323 264.005 259.23 259.74C243.472 251.435 227.668 243.217 211.744 235.289C207.751 233.301 206.47 230.972 209.941 228.038C214.164 224.468 216.166 219.223 219.565 215.05C223.05 210.769 225.226 211.895 228.756 213.76C244.108 221.871 259.578 229.727 274.941 237.811C281.04 241.02 286.746 240.868 292.595 237.062C299.42 232.62 299.841 222.026 292.727 218.011C277.193 209.247 261.434 200.927 245.701 192.569C238.918 188.966 238.587 188.053 243.452 181.814C262.281 157.667 286.973 148.166 315.767 149.467C334.838 150.327 352.256 156.939 366.876 169.957C377.128 179.082 384.18 190.635 386.283 205.521C388.899 224.038 383.28 238.742 372.697 253.217C360.486 269.922 348.073 286.483 336.13 303.432C321.81 323.755 306.837 343.555 292.146 363.582C278.6 385.743 260.052 400.063 235.261 404.317C227.088 405.72 218.802 406.52 210.524 405.284C207.185 404.785 205.982 405.821 206.164 409.493C206.515 416.55 204.145 425.514 207.373 430.159C210.51 434.672 219.402 431.111 225.75 431.591C228.044 431.765 230.38 431.49 232.648 431.815C239.975 432.863 243.643 437.12 243.629 444.269C243.617 451.287 239.793 455.702 232.575 456.651C229.85 457.01 227.057 456.833 224.295 456.836C200.349 456.848 176.405 456.836 152.459 456.851C146.674 456.854 141.551 455.669 138.613 449.475C135.506 442.929 138.257 435.672 145.107 432.991C152.26 430.191 159.741 431.418 166.972 431.845C174.055 432.263 176.071 430.018 175.542 422.594C174.88 413.329 175.303 403.964 175.427 394.645C175.469 391.555 174.011 391.93 171.65 389.87C155.675 383.944 141.759 363.627 155.77 354.191C148.412 346.45 156.86 340.571 178.158 348.23C168.374 347.179 157.533 361.059 155.879 378.426C144.632 363.533 138.341 347.871 142.496 329.25C144.686 319.438 149.876 310.874 155.055 302.471Z" fill="#252423"/>
<path d="M190.882 505.218C164.103 505.218 137.32 505.218 110.54 505.218C108.784 505.218 107.028 505.224 105.272 505.218C95.3209 505.173 88.2939 499.754 88.1843 492.045C88.0774 484.588 95.222 479.04 105.4 479.025C144.695 478.965 183.986 479.001 223.281 479.001C240.184 479.001 257.085 478.974 273.988 479.028C276.608 479.037 279.259 479.194 281.836 479.675C289.221 481.06 292.693 485.01 292.808 491.813C292.928 498.833 289.093 503.484 281.745 504.905C279.604 505.317 277.369 505.209 275.178 505.209C247.08 505.227 218.983 505.221 190.885 505.221L190.882 505.218Z" fill="#282828"/>
</g>
<defs>
<clipPath id="clip0_41_19">
<rect width="525" height="575" fill="white"/>
</clipPath>
</defs>
</svg>
